<mxfile host="app.diagrams.net" modified="2022-10-09T22:51:09.688Z" agent="5.0 (Windows)" etag="09Ub9RwlAx7SrLKalvIM" version="20.4.0" type="github">
  <diagram id="jLvyQRVTHppNXJx_sUPl" name="Page-1">
    <mxGraphModel dx="1597" dy="812" grid="1" gridSize="10" guides="1" tooltips="1" connect="1" arrows="1" fold="1" page="1" pageScale="1" pageWidth="827" pageHeight="1169" background="none" math="0" shadow="1">
      <root>
        <mxCell id="0" />
        <mxCell id="1" parent="0" />
        <mxCell id="D6W2tgMKPBSH_wXgi5Sm-6" value="" style="edgeStyle=orthogonalEdgeStyle;rounded=0;orthogonalLoop=1;jettySize=auto;html=1;fontSize=16;align=center;" parent="1" source="D6W2tgMKPBSH_wXgi5Sm-1" target="D6W2tgMKPBSH_wXgi5Sm-5" edge="1">
          <mxGeometry relative="1" as="geometry" />
        </mxCell>
        <mxCell id="D6W2tgMKPBSH_wXgi5Sm-1" value="" style="rounded=1;whiteSpace=wrap;html=1;align=center;" parent="1" vertex="1">
          <mxGeometry x="570" y="70" width="120" height="60" as="geometry" />
        </mxCell>
        <mxCell id="D6W2tgMKPBSH_wXgi5Sm-2" value="POWER UP" style="text;html=1;strokeColor=none;fillColor=none;align=center;verticalAlign=middle;whiteSpace=wrap;rounded=0;fontSize=16;" parent="1" vertex="1">
          <mxGeometry x="586" y="80" width="89" height="40" as="geometry" />
        </mxCell>
        <mxCell id="D6W2tgMKPBSH_wXgi5Sm-12" value="" style="edgeStyle=orthogonalEdgeStyle;rounded=0;orthogonalLoop=1;jettySize=auto;html=1;fontSize=15;" parent="1" source="D6W2tgMKPBSH_wXgi5Sm-5" target="D6W2tgMKPBSH_wXgi5Sm-11" edge="1">
          <mxGeometry relative="1" as="geometry" />
        </mxCell>
        <mxCell id="D6W2tgMKPBSH_wXgi5Sm-38" value="" style="edgeStyle=orthogonalEdgeStyle;rounded=0;orthogonalLoop=1;jettySize=auto;html=1;fontSize=15;fontColor=#FF0000;" parent="1" source="D6W2tgMKPBSH_wXgi5Sm-5" target="D6W2tgMKPBSH_wXgi5Sm-37" edge="1">
          <mxGeometry relative="1" as="geometry" />
        </mxCell>
        <mxCell id="D6W2tgMKPBSH_wXgi5Sm-5" value="&lt;font style=&quot;font-size: 15px;&quot;&gt;Initialize MPU &lt;br&gt;&lt;/font&gt;" style="rounded=1;whiteSpace=wrap;html=1;align=center;" parent="1" vertex="1">
          <mxGeometry x="570" y="160" width="120" height="60" as="geometry" />
        </mxCell>
        <mxCell id="D6W2tgMKPBSH_wXgi5Sm-7" style="edgeStyle=orthogonalEdgeStyle;rounded=0;orthogonalLoop=1;jettySize=auto;html=1;exitX=0.5;exitY=1;exitDx=0;exitDy=0;fontSize=15;align=center;" parent="1" source="D6W2tgMKPBSH_wXgi5Sm-5" target="D6W2tgMKPBSH_wXgi5Sm-5" edge="1">
          <mxGeometry relative="1" as="geometry" />
        </mxCell>
        <mxCell id="D6W2tgMKPBSH_wXgi5Sm-15" value="" style="edgeStyle=orthogonalEdgeStyle;rounded=0;orthogonalLoop=1;jettySize=auto;html=1;fontSize=17;fontColor=#FF0000;" parent="1" source="D6W2tgMKPBSH_wXgi5Sm-8" target="D6W2tgMKPBSH_wXgi5Sm-13" edge="1">
          <mxGeometry relative="1" as="geometry" />
        </mxCell>
        <mxCell id="D6W2tgMKPBSH_wXgi5Sm-8" value="&lt;div&gt;&lt;font style=&quot;font-size: 15px;&quot;&gt;Initialize HMC5883L&lt;/font&gt;&lt;/div&gt;&lt;div&gt;&lt;font style=&quot;font-size: 15px;&quot;&gt;&lt;br&gt;&lt;/font&gt;&lt;/div&gt;" style="rounded=1;whiteSpace=wrap;html=1;align=center;spacingTop=13;" parent="1" vertex="1">
          <mxGeometry x="570" y="260" width="120" height="60" as="geometry" />
        </mxCell>
        <mxCell id="D6W2tgMKPBSH_wXgi5Sm-10" value="&lt;h1&gt;FlighComputer&lt;/h1&gt;&lt;p&gt;MPU6050 - HMC5883L - BMP085&lt;/p&gt;&lt;p&gt;LoRa RFM95W - uBlox M8 GPS&lt;/p&gt;&lt;p&gt;Teensy 4.1 - Build-In SD Card&lt;br&gt;&lt;/p&gt;" style="text;html=1;strokeColor=none;fillColor=none;spacing=0;spacingTop=-15;whiteSpace=wrap;overflow=hidden;rounded=0;fontSize=15;" parent="1" vertex="1">
          <mxGeometry x="140" y="30" width="230" height="170" as="geometry" />
        </mxCell>
        <mxCell id="D6W2tgMKPBSH_wXgi5Sm-11" value="&lt;font style=&quot;font-size: 17px;&quot; color=&quot;#FF0000&quot;&gt;&lt;b&gt;FAIL&lt;/b&gt;&lt;/font&gt;" style="rounded=1;whiteSpace=wrap;html=1;align=center;" parent="1" vertex="1">
          <mxGeometry x="770" y="160" width="56" height="60" as="geometry" />
        </mxCell>
        <mxCell id="D6W2tgMKPBSH_wXgi5Sm-21" value="" style="edgeStyle=orthogonalEdgeStyle;rounded=0;orthogonalLoop=1;jettySize=auto;html=1;fontSize=17;fontColor=#FF0000;entryX=0;entryY=0.5;entryDx=0;entryDy=0;" parent="1" source="D6W2tgMKPBSH_wXgi5Sm-13" target="D6W2tgMKPBSH_wXgi5Sm-54" edge="1">
          <mxGeometry relative="1" as="geometry">
            <mxPoint x="890" y="290" as="targetPoint" />
          </mxGeometry>
        </mxCell>
        <mxCell id="D6W2tgMKPBSH_wXgi5Sm-13" value="&lt;font style=&quot;font-size: 17px;&quot; color=&quot;#FF0000&quot;&gt;&lt;b&gt;FAIL&lt;/b&gt;&lt;/font&gt;" style="rounded=1;whiteSpace=wrap;html=1;align=center;" parent="1" vertex="1">
          <mxGeometry x="770" y="260" width="56" height="60" as="geometry" />
        </mxCell>
        <mxCell id="D6W2tgMKPBSH_wXgi5Sm-19" value="" style="edgeStyle=orthogonalEdgeStyle;rounded=0;orthogonalLoop=1;jettySize=auto;html=1;fontSize=17;fontColor=#FF0000;" parent="1" source="D6W2tgMKPBSH_wXgi5Sm-16" target="D6W2tgMKPBSH_wXgi5Sm-18" edge="1">
          <mxGeometry relative="1" as="geometry" />
        </mxCell>
        <mxCell id="D6W2tgMKPBSH_wXgi5Sm-16" value="&lt;div&gt;&lt;font style=&quot;font-size: 15px;&quot;&gt;Initialize &lt;br&gt;&lt;/font&gt;&lt;/div&gt;&lt;div&gt;&lt;font style=&quot;font-size: 15px;&quot;&gt;BMP085&lt;/font&gt;&lt;/div&gt;&lt;div&gt;&lt;font style=&quot;font-size: 15px;&quot;&gt;&lt;br&gt;&lt;/font&gt;&lt;/div&gt;" style="rounded=1;whiteSpace=wrap;html=1;align=center;spacingTop=13;" parent="1" vertex="1">
          <mxGeometry x="570" y="360" width="120" height="60" as="geometry" />
        </mxCell>
        <mxCell id="D6W2tgMKPBSH_wXgi5Sm-18" value="&lt;font style=&quot;font-size: 17px;&quot; color=&quot;#FF0000&quot;&gt;&lt;b&gt;FAIL&lt;/b&gt;&lt;/font&gt;" style="rounded=1;whiteSpace=wrap;html=1;align=center;" parent="1" vertex="1">
          <mxGeometry x="770" y="360" width="56" height="60" as="geometry" />
        </mxCell>
        <mxCell id="D6W2tgMKPBSH_wXgi5Sm-24" value="" style="endArrow=classic;html=1;rounded=0;fontSize=17;fontColor=#FF0000;exitX=1;exitY=0.5;exitDx=0;exitDy=0;entryX=0;entryY=0.5;entryDx=0;entryDy=0;" parent="1" source="D6W2tgMKPBSH_wXgi5Sm-18" target="D6W2tgMKPBSH_wXgi5Sm-54" edge="1">
          <mxGeometry width="50" height="50" relative="1" as="geometry">
            <mxPoint x="826" y="370" as="sourcePoint" />
            <mxPoint x="900" y="310" as="targetPoint" />
            <Array as="points">
              <mxPoint x="870" y="390" />
            </Array>
          </mxGeometry>
        </mxCell>
        <mxCell id="D6W2tgMKPBSH_wXgi5Sm-27" value="BUZR" style="ellipse;whiteSpace=wrap;html=1;aspect=fixed;fontSize=17;fontColor=#FF0000;" parent="1" vertex="1">
          <mxGeometry x="990" y="260" width="60" height="60" as="geometry" />
        </mxCell>
        <mxCell id="D6W2tgMKPBSH_wXgi5Sm-28" value="" style="endArrow=classic;html=1;rounded=0;fontSize=17;fontColor=#FF0000;entryX=0;entryY=0.5;entryDx=0;entryDy=0;" parent="1" target="D6W2tgMKPBSH_wXgi5Sm-27" edge="1">
          <mxGeometry width="50" height="50" relative="1" as="geometry">
            <mxPoint x="970" y="290" as="sourcePoint" />
            <mxPoint x="700" y="190" as="targetPoint" />
          </mxGeometry>
        </mxCell>
        <mxCell id="D6W2tgMKPBSH_wXgi5Sm-30" value="" style="edgeStyle=orthogonalEdgeStyle;rounded=0;orthogonalLoop=1;jettySize=auto;html=1;fontSize=17;fontColor=#FF0000;" parent="1" source="D6W2tgMKPBSH_wXgi5Sm-31" target="D6W2tgMKPBSH_wXgi5Sm-32" edge="1">
          <mxGeometry relative="1" as="geometry" />
        </mxCell>
        <mxCell id="D6W2tgMKPBSH_wXgi5Sm-31" value="&lt;div&gt;&lt;font style=&quot;font-size: 15px;&quot;&gt;Initialize &lt;br&gt;&lt;/font&gt;&lt;/div&gt;&lt;div style=&quot;font-size: 15px;&quot;&gt;LoRa RFM95W&lt;br&gt;&lt;/div&gt;&lt;div&gt;&lt;font style=&quot;font-size: 15px;&quot;&gt;&lt;br&gt;&lt;/font&gt;&lt;/div&gt;" style="rounded=1;whiteSpace=wrap;html=1;align=center;spacingTop=13;" parent="1" vertex="1">
          <mxGeometry x="570" y="460" width="120" height="60" as="geometry" />
        </mxCell>
        <mxCell id="D6W2tgMKPBSH_wXgi5Sm-32" value="&lt;font style=&quot;font-size: 17px;&quot; color=&quot;#FF0000&quot;&gt;&lt;b&gt;FAIL&lt;/b&gt;&lt;/font&gt;" style="rounded=1;whiteSpace=wrap;html=1;align=center;" parent="1" vertex="1">
          <mxGeometry x="770" y="460" width="56" height="60" as="geometry" />
        </mxCell>
        <mxCell id="D6W2tgMKPBSH_wXgi5Sm-34" value="" style="endArrow=classic;html=1;rounded=0;fontSize=15;fontColor=#FF0000;exitX=1;exitY=0.5;exitDx=0;exitDy=0;entryX=0;entryY=1;entryDx=0;entryDy=0;" parent="1" source="D6W2tgMKPBSH_wXgi5Sm-32" target="D6W2tgMKPBSH_wXgi5Sm-54" edge="1">
          <mxGeometry width="50" height="50" relative="1" as="geometry">
            <mxPoint x="826" y="470" as="sourcePoint" />
            <mxPoint x="940" y="320" as="targetPoint" />
            <Array as="points">
              <mxPoint x="900" y="490" />
            </Array>
          </mxGeometry>
        </mxCell>
        <mxCell id="D6W2tgMKPBSH_wXgi5Sm-37" value="&lt;b&gt;&lt;font style=&quot;font-size: 15px;&quot; color=&quot;#00FF00&quot;&gt;Success &lt;/font&gt;&lt;/b&gt;" style="rounded=1;whiteSpace=wrap;html=1;align=center;" parent="1" vertex="1">
          <mxGeometry x="460" y="170" width="80" height="40" as="geometry" />
        </mxCell>
        <mxCell id="D6W2tgMKPBSH_wXgi5Sm-39" value="" style="endArrow=classic;html=1;rounded=0;fontSize=15;fontColor=#00FF00;exitX=0.5;exitY=1;exitDx=0;exitDy=0;entryX=0.5;entryY=0;entryDx=0;entryDy=0;" parent="1" source="D6W2tgMKPBSH_wXgi5Sm-37" target="D6W2tgMKPBSH_wXgi5Sm-8" edge="1">
          <mxGeometry width="50" height="50" relative="1" as="geometry">
            <mxPoint x="480" y="350" as="sourcePoint" />
            <mxPoint x="530" y="300" as="targetPoint" />
            <Array as="points">
              <mxPoint x="500" y="240" />
              <mxPoint x="630" y="240" />
            </Array>
          </mxGeometry>
        </mxCell>
        <mxCell id="D6W2tgMKPBSH_wXgi5Sm-43" value="&lt;b&gt;&lt;font style=&quot;font-size: 15px;&quot; color=&quot;#00FF00&quot;&gt;Success &lt;/font&gt;&lt;/b&gt;" style="rounded=1;whiteSpace=wrap;html=1;align=center;" parent="1" vertex="1">
          <mxGeometry x="460" y="270" width="80" height="40" as="geometry" />
        </mxCell>
        <mxCell id="D6W2tgMKPBSH_wXgi5Sm-44" value="" style="endArrow=classic;html=1;rounded=0;fontSize=15;fontColor=#00FF00;exitX=0;exitY=0.5;exitDx=0;exitDy=0;entryX=1;entryY=0.5;entryDx=0;entryDy=0;" parent="1" source="D6W2tgMKPBSH_wXgi5Sm-8" target="D6W2tgMKPBSH_wXgi5Sm-43" edge="1">
          <mxGeometry width="50" height="50" relative="1" as="geometry">
            <mxPoint x="480" y="350" as="sourcePoint" />
            <mxPoint x="530" y="300" as="targetPoint" />
          </mxGeometry>
        </mxCell>
        <mxCell id="D6W2tgMKPBSH_wXgi5Sm-45" value="" style="endArrow=classic;html=1;rounded=0;fontSize=15;fontColor=#00FF00;exitX=0.5;exitY=1;exitDx=0;exitDy=0;entryX=0.5;entryY=0;entryDx=0;entryDy=0;" parent="1" edge="1">
          <mxGeometry width="50" height="50" relative="1" as="geometry">
            <mxPoint x="500" y="310" as="sourcePoint" />
            <mxPoint x="630" y="360" as="targetPoint" />
            <Array as="points">
              <mxPoint x="500" y="340" />
              <mxPoint x="630" y="340" />
            </Array>
          </mxGeometry>
        </mxCell>
        <mxCell id="D6W2tgMKPBSH_wXgi5Sm-46" value="&lt;b&gt;&lt;font style=&quot;font-size: 15px;&quot; color=&quot;#00FF00&quot;&gt;Success &lt;/font&gt;&lt;/b&gt;" style="rounded=1;whiteSpace=wrap;html=1;align=center;" parent="1" vertex="1">
          <mxGeometry x="460" y="370" width="80" height="40" as="geometry" />
        </mxCell>
        <mxCell id="D6W2tgMKPBSH_wXgi5Sm-48" value="" style="endArrow=classic;html=1;rounded=0;fontSize=15;fontColor=#00FF00;exitX=0.5;exitY=1;exitDx=0;exitDy=0;entryX=0.5;entryY=0;entryDx=0;entryDy=0;" parent="1" edge="1">
          <mxGeometry width="50" height="50" relative="1" as="geometry">
            <mxPoint x="500" y="410" as="sourcePoint" />
            <mxPoint x="630" y="460" as="targetPoint" />
            <Array as="points">
              <mxPoint x="500" y="440" />
              <mxPoint x="630" y="440" />
            </Array>
          </mxGeometry>
        </mxCell>
        <mxCell id="D6W2tgMKPBSH_wXgi5Sm-49" value="" style="edgeStyle=orthogonalEdgeStyle;rounded=0;orthogonalLoop=1;jettySize=auto;html=1;fontSize=17;fontColor=#FF0000;" parent="1" source="D6W2tgMKPBSH_wXgi5Sm-50" target="D6W2tgMKPBSH_wXgi5Sm-51" edge="1">
          <mxGeometry relative="1" as="geometry" />
        </mxCell>
        <mxCell id="D6W2tgMKPBSH_wXgi5Sm-50" value="&lt;div&gt;&lt;font style=&quot;font-size: 15px;&quot;&gt;Initialize &lt;br&gt;&lt;/font&gt;&lt;/div&gt;&lt;div style=&quot;font-size: 15px;&quot;&gt;uBlox GPS&lt;br&gt;&lt;/div&gt;&lt;div&gt;&lt;font style=&quot;font-size: 15px;&quot;&gt;&lt;br&gt;&lt;/font&gt;&lt;/div&gt;" style="rounded=1;whiteSpace=wrap;html=1;align=center;spacingTop=13;" parent="1" vertex="1">
          <mxGeometry x="570" y="560" width="120" height="60" as="geometry" />
        </mxCell>
        <mxCell id="D6W2tgMKPBSH_wXgi5Sm-51" value="&lt;font style=&quot;font-size: 17px;&quot; color=&quot;#FF0000&quot;&gt;&lt;b&gt;FAIL&lt;/b&gt;&lt;/font&gt;" style="rounded=1;whiteSpace=wrap;html=1;align=center;" parent="1" vertex="1">
          <mxGeometry x="770" y="560" width="56" height="60" as="geometry" />
        </mxCell>
        <mxCell id="D6W2tgMKPBSH_wXgi5Sm-54" value="&lt;font color=&quot;#FF0000&quot;&gt;RED LED&lt;br&gt;&lt;/font&gt;" style="ellipse;whiteSpace=wrap;html=1;aspect=fixed;fontSize=15;fontColor=#00FF00;" parent="1" vertex="1">
          <mxGeometry x="910" y="260" width="60" height="60" as="geometry" />
        </mxCell>
        <mxCell id="D6W2tgMKPBSH_wXgi5Sm-58" value="" style="endArrow=classic;html=1;rounded=0;fontSize=15;fontColor=#FF0000;exitX=1;exitY=0.5;exitDx=0;exitDy=0;" parent="1" source="D6W2tgMKPBSH_wXgi5Sm-51" edge="1">
          <mxGeometry width="50" height="50" relative="1" as="geometry">
            <mxPoint x="826" y="580" as="sourcePoint" />
            <mxPoint x="940" y="320" as="targetPoint" />
            <Array as="points">
              <mxPoint x="940" y="590" />
            </Array>
          </mxGeometry>
        </mxCell>
        <mxCell id="D6W2tgMKPBSH_wXgi5Sm-62" value="" style="endArrow=classic;html=1;rounded=0;fontSize=15;fontColor=#FF0000;entryX=0;entryY=0.5;entryDx=0;entryDy=0;" parent="1" target="D6W2tgMKPBSH_wXgi5Sm-54" edge="1">
          <mxGeometry width="50" height="50" relative="1" as="geometry">
            <mxPoint x="830" y="190" as="sourcePoint" />
            <mxPoint x="530" y="420" as="targetPoint" />
            <Array as="points">
              <mxPoint x="880" y="190" />
            </Array>
          </mxGeometry>
        </mxCell>
        <mxCell id="D6W2tgMKPBSH_wXgi5Sm-63" value="&lt;b&gt;&lt;font style=&quot;font-size: 15px;&quot; color=&quot;#00FF00&quot;&gt;Success &lt;/font&gt;&lt;/b&gt;" style="rounded=1;whiteSpace=wrap;html=1;align=center;" parent="1" vertex="1">
          <mxGeometry x="460" y="470" width="80" height="40" as="geometry" />
        </mxCell>
        <mxCell id="D6W2tgMKPBSH_wXgi5Sm-64" value="" style="endArrow=classic;html=1;rounded=0;fontSize=15;fontColor=#00FF00;exitX=0;exitY=0.5;exitDx=0;exitDy=0;entryX=1;entryY=0.5;entryDx=0;entryDy=0;" parent="1" edge="1">
          <mxGeometry width="50" height="50" relative="1" as="geometry">
            <mxPoint x="570" y="389.5" as="sourcePoint" />
            <mxPoint x="540" y="389.5" as="targetPoint" />
          </mxGeometry>
        </mxCell>
        <mxCell id="D6W2tgMKPBSH_wXgi5Sm-65" value="" style="endArrow=classic;html=1;rounded=0;fontSize=15;fontColor=#00FF00;exitX=0;exitY=0.5;exitDx=0;exitDy=0;entryX=1;entryY=0.5;entryDx=0;entryDy=0;" parent="1" edge="1">
          <mxGeometry width="50" height="50" relative="1" as="geometry">
            <mxPoint x="570" y="489.5" as="sourcePoint" />
            <mxPoint x="540" y="489.5" as="targetPoint" />
          </mxGeometry>
        </mxCell>
        <mxCell id="D6W2tgMKPBSH_wXgi5Sm-66" value="" style="endArrow=classic;html=1;rounded=0;fontSize=15;fontColor=#00FF00;exitX=0.5;exitY=1;exitDx=0;exitDy=0;entryX=0.5;entryY=0;entryDx=0;entryDy=0;" parent="1" edge="1">
          <mxGeometry width="50" height="50" relative="1" as="geometry">
            <mxPoint x="500" y="510" as="sourcePoint" />
            <mxPoint x="630" y="560" as="targetPoint" />
            <Array as="points">
              <mxPoint x="500" y="540" />
              <mxPoint x="630" y="540" />
            </Array>
          </mxGeometry>
        </mxCell>
        <mxCell id="D6W2tgMKPBSH_wXgi5Sm-67" value="&lt;div&gt;&lt;font style=&quot;font-size: 15px;&quot;&gt;Initialize &lt;br&gt;&lt;/font&gt;&lt;/div&gt;&lt;div style=&quot;font-size: 15px;&quot;&gt;SD Card&lt;br&gt;&lt;/div&gt;&lt;div&gt;&lt;font style=&quot;font-size: 15px;&quot;&gt;&lt;br&gt;&lt;/font&gt;&lt;/div&gt;" style="rounded=1;whiteSpace=wrap;html=1;align=center;spacingTop=13;" parent="1" vertex="1">
          <mxGeometry x="570" y="660" width="120" height="60" as="geometry" />
        </mxCell>
        <mxCell id="D6W2tgMKPBSH_wXgi5Sm-68" value="&lt;b&gt;&lt;font style=&quot;font-size: 15px;&quot; color=&quot;#00FF00&quot;&gt;Success &lt;/font&gt;&lt;/b&gt;" style="rounded=1;whiteSpace=wrap;html=1;align=center;" parent="1" vertex="1">
          <mxGeometry x="460" y="570" width="80" height="40" as="geometry" />
        </mxCell>
        <mxCell id="D6W2tgMKPBSH_wXgi5Sm-69" value="" style="endArrow=classic;html=1;rounded=0;fontSize=15;fontColor=#00FF00;exitX=0;exitY=0.5;exitDx=0;exitDy=0;entryX=1;entryY=0.5;entryDx=0;entryDy=0;" parent="1" edge="1">
          <mxGeometry width="50" height="50" relative="1" as="geometry">
            <mxPoint x="570" y="589.5" as="sourcePoint" />
            <mxPoint x="540" y="589.5" as="targetPoint" />
          </mxGeometry>
        </mxCell>
        <mxCell id="D6W2tgMKPBSH_wXgi5Sm-71" value="&lt;b&gt;&lt;font style=&quot;font-size: 15px;&quot; color=&quot;#00FF00&quot;&gt;Success &lt;/font&gt;&lt;/b&gt;" style="rounded=1;whiteSpace=wrap;html=1;align=center;" parent="1" vertex="1">
          <mxGeometry x="460" y="670" width="80" height="40" as="geometry" />
        </mxCell>
        <mxCell id="D6W2tgMKPBSH_wXgi5Sm-73" value="" style="endArrow=classic;html=1;rounded=0;fontSize=15;fontColor=#00FF00;exitX=0;exitY=0.5;exitDx=0;exitDy=0;entryX=1;entryY=0.5;entryDx=0;entryDy=0;" parent="1" edge="1">
          <mxGeometry width="50" height="50" relative="1" as="geometry">
            <mxPoint x="570" y="689.5" as="sourcePoint" />
            <mxPoint x="540" y="689.5" as="targetPoint" />
          </mxGeometry>
        </mxCell>
        <mxCell id="D6W2tgMKPBSH_wXgi5Sm-75" value="" style="endArrow=classic;html=1;rounded=0;fontSize=15;fontColor=#00FF00;exitX=0.5;exitY=1;exitDx=0;exitDy=0;entryX=0.5;entryY=0;entryDx=0;entryDy=0;" parent="1" edge="1">
          <mxGeometry width="50" height="50" relative="1" as="geometry">
            <mxPoint x="500" y="610" as="sourcePoint" />
            <mxPoint x="630" y="660" as="targetPoint" />
            <Array as="points">
              <mxPoint x="500" y="640" />
              <mxPoint x="630" y="640" />
            </Array>
          </mxGeometry>
        </mxCell>
        <mxCell id="D6W2tgMKPBSH_wXgi5Sm-77" value="&lt;font style=&quot;font-size: 17px;&quot; color=&quot;#FF0000&quot;&gt;&lt;b&gt;FAIL&lt;/b&gt;&lt;/font&gt;" style="rounded=1;whiteSpace=wrap;html=1;align=center;" parent="1" vertex="1">
          <mxGeometry x="770" y="660" width="56" height="60" as="geometry" />
        </mxCell>
        <mxCell id="D6W2tgMKPBSH_wXgi5Sm-80" value="" style="edgeStyle=orthogonalEdgeStyle;rounded=0;orthogonalLoop=1;jettySize=auto;html=1;fontSize=17;fontColor=#FF0000;" parent="1" edge="1">
          <mxGeometry relative="1" as="geometry">
            <mxPoint x="690" y="689.5" as="sourcePoint" />
            <mxPoint x="770" y="689.5" as="targetPoint" />
          </mxGeometry>
        </mxCell>
        <mxCell id="D6W2tgMKPBSH_wXgi5Sm-81" value="" style="endArrow=classic;html=1;rounded=0;fontSize=15;fontColor=#FF0000;exitX=1;exitY=0.5;exitDx=0;exitDy=0;entryX=1;entryY=1;entryDx=0;entryDy=0;" parent="1" target="D6W2tgMKPBSH_wXgi5Sm-54" edge="1">
          <mxGeometry width="50" height="50" relative="1" as="geometry">
            <mxPoint x="826" y="690" as="sourcePoint" />
            <mxPoint x="940" y="420" as="targetPoint" />
            <Array as="points">
              <mxPoint x="970" y="690" />
            </Array>
          </mxGeometry>
        </mxCell>
        <mxCell id="D6W2tgMKPBSH_wXgi5Sm-82" value="" style="endArrow=classic;html=1;rounded=0;fontSize=15;fontColor=#FF0000;exitX=0;exitY=0.5;exitDx=0;exitDy=0;" parent="1" source="D6W2tgMKPBSH_wXgi5Sm-71" edge="1">
          <mxGeometry width="50" height="50" relative="1" as="geometry">
            <mxPoint x="370" y="690" as="sourcePoint" />
            <mxPoint x="400" y="310" as="targetPoint" />
            <Array as="points">
              <mxPoint x="430" y="690" />
              <mxPoint x="430" y="310" />
            </Array>
          </mxGeometry>
        </mxCell>
        <mxCell id="D6W2tgMKPBSH_wXgi5Sm-85" value="&lt;font color=&quot;#00FF00&quot;&gt;GREEN LED&lt;br&gt;&lt;/font&gt;" style="ellipse;whiteSpace=wrap;html=1;aspect=fixed;fontSize=15;fontColor=#FF0000;spacingTop=5;" parent="1" vertex="1">
          <mxGeometry x="330" y="270" width="70" height="70" as="geometry" />
        </mxCell>
        <mxCell id="D6W2tgMKPBSH_wXgi5Sm-89" value="BUZR" style="ellipse;whiteSpace=wrap;html=1;aspect=fixed;fontSize=17;fontColor=#00FF00;" parent="1" vertex="1">
          <mxGeometry x="335" y="360" width="60" height="60" as="geometry" />
        </mxCell>
        <mxCell id="D6W2tgMKPBSH_wXgi5Sm-90" value="" style="endArrow=classic;html=1;rounded=0;fontSize=15;fontColor=#00FF00;exitX=0.5;exitY=1;exitDx=0;exitDy=0;entryX=0.5;entryY=0;entryDx=0;entryDy=0;" parent="1" source="D6W2tgMKPBSH_wXgi5Sm-85" target="D6W2tgMKPBSH_wXgi5Sm-89" edge="1">
          <mxGeometry width="50" height="50" relative="1" as="geometry">
            <mxPoint x="560" y="470" as="sourcePoint" />
            <mxPoint x="610" y="420" as="targetPoint" />
          </mxGeometry>
        </mxCell>
        <mxCell id="IBzwB0Dt4I5LB6th3Ort-38" style="edgeStyle=orthogonalEdgeStyle;rounded=0;orthogonalLoop=1;jettySize=auto;html=1;exitX=0;exitY=0.5;exitDx=0;exitDy=0;entryX=1;entryY=0.5;entryDx=0;entryDy=0;fontSize=15;fontColor=#FF8000;" edge="1" parent="1" source="SW75NxaCi-P2bdis3kfb-2" target="IBzwB0Dt4I5LB6th3Ort-31">
          <mxGeometry relative="1" as="geometry" />
        </mxCell>
        <mxCell id="SW75NxaCi-P2bdis3kfb-2" value="&lt;div style=&quot;font-size: 15px;&quot;&gt;&lt;font style=&quot;font-size: 15px;&quot;&gt;BUTTON &lt;br&gt;&lt;/font&gt;&lt;/div&gt;&lt;div style=&quot;font-size: 15px;&quot;&gt;&lt;font style=&quot;font-size: 15px;&quot;&gt;PRESSED&lt;/font&gt;&lt;/div&gt;" style="rounded=1;whiteSpace=wrap;html=1;" parent="1" vertex="1">
          <mxGeometry x="170" y="260" width="100" height="40" as="geometry" />
        </mxCell>
        <mxCell id="SW75NxaCi-P2bdis3kfb-6" value="2" style="ellipse;whiteSpace=wrap;html=1;fontSize=15;" parent="1" vertex="1">
          <mxGeometry x="230" y="330" width="30" height="30" as="geometry" />
        </mxCell>
        <mxCell id="SW75NxaCi-P2bdis3kfb-8" value="1" style="ellipse;whiteSpace=wrap;html=1;fontSize=15;" parent="1" vertex="1">
          <mxGeometry x="180" y="330" width="30" height="30" as="geometry" />
        </mxCell>
        <mxCell id="IBzwB0Dt4I5LB6th3Ort-8" style="edgeStyle=orthogonalEdgeStyle;rounded=0;orthogonalLoop=1;jettySize=auto;html=1;exitX=0.5;exitY=1;exitDx=0;exitDy=0;" edge="1" parent="1" source="IBzwB0Dt4I5LB6th3Ort-4" target="IBzwB0Dt4I5LB6th3Ort-4">
          <mxGeometry relative="1" as="geometry" />
        </mxCell>
        <mxCell id="IBzwB0Dt4I5LB6th3Ort-12" value="Wait 5 Sec" style="rounded=1;whiteSpace=wrap;html=1;" vertex="1" parent="1">
          <mxGeometry x="320" y="440" width="90" height="30" as="geometry" />
        </mxCell>
        <mxCell id="IBzwB0Dt4I5LB6th3Ort-16" value="" style="endArrow=classic;html=1;rounded=0;exitX=0;exitY=0.5;exitDx=0;exitDy=0;entryX=1;entryY=0.5;entryDx=0;entryDy=0;" edge="1" parent="1" source="IBzwB0Dt4I5LB6th3Ort-12" target="SW75NxaCi-P2bdis3kfb-2">
          <mxGeometry width="50" height="50" relative="1" as="geometry">
            <mxPoint x="540" y="360" as="sourcePoint" />
            <mxPoint x="590" y="310" as="targetPoint" />
            <Array as="points">
              <mxPoint x="300" y="455" />
              <mxPoint x="300" y="280" />
            </Array>
          </mxGeometry>
        </mxCell>
        <mxCell id="IBzwB0Dt4I5LB6th3Ort-17" value="5 SEC" style="text;html=1;strokeColor=none;fillColor=none;align=center;verticalAlign=middle;whiteSpace=wrap;rounded=0;fontStyle=1;fontSize=10;" vertex="1" parent="1">
          <mxGeometry x="990" y="290" width="60" height="30" as="geometry" />
        </mxCell>
        <mxCell id="IBzwB0Dt4I5LB6th3Ort-21" value="2 SEC" style="text;html=1;strokeColor=none;fillColor=none;align=center;verticalAlign=middle;whiteSpace=wrap;rounded=0;fontStyle=1;fontSize=10;" vertex="1" parent="1">
          <mxGeometry x="335" y="390" width="60" height="30" as="geometry" />
        </mxCell>
        <mxCell id="IBzwB0Dt4I5LB6th3Ort-22" value="" style="endArrow=classic;html=1;rounded=0;fontSize=15;fontColor=#00FF00;entryX=0.5;entryY=0;entryDx=0;entryDy=0;exitX=0.5;exitY=1;exitDx=0;exitDy=0;" edge="1" parent="1" source="IBzwB0Dt4I5LB6th3Ort-21" target="IBzwB0Dt4I5LB6th3Ort-12">
          <mxGeometry width="50" height="50" relative="1" as="geometry">
            <mxPoint x="360" y="420" as="sourcePoint" />
            <mxPoint x="375" y="370" as="targetPoint" />
          </mxGeometry>
        </mxCell>
        <mxCell id="IBzwB0Dt4I5LB6th3Ort-24" value="&lt;div style=&quot;font-size: 15px;&quot;&gt;&lt;font style=&quot;font-size: 15px;&quot; color=&quot;#0000CC&quot;&gt;&lt;b&gt;PREPARE &lt;br&gt;&lt;/b&gt;&lt;/font&gt;&lt;/div&gt;&lt;div style=&quot;font-size: 15px;&quot;&gt;&lt;font style=&quot;font-size: 15px;&quot; color=&quot;#0000CC&quot;&gt;&lt;b&gt;FOR FLIGHT&lt;/b&gt;&lt;/font&gt;&lt;/div&gt;" style="rounded=1;whiteSpace=wrap;html=1;fontSize=10;" vertex="1" parent="1">
          <mxGeometry x="135" y="450" width="120" height="60" as="geometry" />
        </mxCell>
        <mxCell id="IBzwB0Dt4I5LB6th3Ort-4" value="SERVICE MODE" style="rounded=1;whiteSpace=wrap;html=1;fontColor=#FF8000;" vertex="1" parent="1">
          <mxGeometry x="210" y="385" width="70" height="40" as="geometry" />
        </mxCell>
        <mxCell id="IBzwB0Dt4I5LB6th3Ort-27" value="" style="endArrow=classic;html=1;rounded=0;fontSize=15;fontColor=#0000CC;exitX=0.75;exitY=1;exitDx=0;exitDy=0;entryX=0.5;entryY=0;entryDx=0;entryDy=0;" edge="1" parent="1" source="SW75NxaCi-P2bdis3kfb-2" target="SW75NxaCi-P2bdis3kfb-6">
          <mxGeometry width="50" height="50" relative="1" as="geometry">
            <mxPoint x="460" y="470" as="sourcePoint" />
            <mxPoint x="510" y="420" as="targetPoint" />
          </mxGeometry>
        </mxCell>
        <mxCell id="IBzwB0Dt4I5LB6th3Ort-28" value="" style="endArrow=classic;html=1;rounded=0;fontSize=15;fontColor=#0000CC;entryX=0.5;entryY=0;entryDx=0;entryDy=0;exitX=0.5;exitY=1;exitDx=0;exitDy=0;" edge="1" parent="1" source="SW75NxaCi-P2bdis3kfb-6">
          <mxGeometry width="50" height="50" relative="1" as="geometry">
            <mxPoint x="245.10000000000002" y="365" as="sourcePoint" />
            <mxPoint x="244.60000000000002" y="385" as="targetPoint" />
          </mxGeometry>
        </mxCell>
        <mxCell id="IBzwB0Dt4I5LB6th3Ort-29" value="" style="endArrow=classic;html=1;rounded=0;fontSize=15;fontColor=#0000CC;exitX=0.75;exitY=1;exitDx=0;exitDy=0;entryX=0.5;entryY=0;entryDx=0;entryDy=0;" edge="1" parent="1">
          <mxGeometry width="50" height="50" relative="1" as="geometry">
            <mxPoint x="194.60000000000002" y="300" as="sourcePoint" />
            <mxPoint x="194.60000000000002" y="330" as="targetPoint" />
          </mxGeometry>
        </mxCell>
        <mxCell id="IBzwB0Dt4I5LB6th3Ort-30" value="" style="endArrow=classic;html=1;rounded=0;fontSize=15;fontColor=#0000CC;exitX=0.5;exitY=1;exitDx=0;exitDy=0;" edge="1" parent="1" source="SW75NxaCi-P2bdis3kfb-8">
          <mxGeometry width="50" height="50" relative="1" as="geometry">
            <mxPoint x="460" y="470" as="sourcePoint" />
            <mxPoint x="195" y="450" as="targetPoint" />
          </mxGeometry>
        </mxCell>
        <mxCell id="IBzwB0Dt4I5LB6th3Ort-41" style="edgeStyle=orthogonalEdgeStyle;rounded=0;orthogonalLoop=1;jettySize=auto;html=1;exitX=0.5;exitY=0;exitDx=0;exitDy=0;fontSize=15;fontColor=#FF8000;entryX=0.5;entryY=0;entryDx=0;entryDy=0;" edge="1" parent="1" source="IBzwB0Dt4I5LB6th3Ort-31" target="D6W2tgMKPBSH_wXgi5Sm-85">
          <mxGeometry relative="1" as="geometry">
            <mxPoint x="430" y="300" as="targetPoint" />
          </mxGeometry>
        </mxCell>
        <mxCell id="IBzwB0Dt4I5LB6th3Ort-31" value="0" style="ellipse;whiteSpace=wrap;html=1;fontSize=15;" vertex="1" parent="1">
          <mxGeometry x="120" y="265" width="30" height="30" as="geometry" />
        </mxCell>
      </root>
    </mxGraphModel>
  </diagram>
</mxfile>
